<svg id="Capa_1" data-name="Capa 1" xmlns="http://www.w3.org/2000/svg" xmlns:xlink="http://www.w3.org/1999/xlink" viewBox="0 0 830.13 182.43"><defs><style>.cls-1{fill:#211915;}.cls-2{fill:url(#Degradado_sin_nombre);}.cls-11,.cls-15,.cls-3,.cls-6,.cls-8{opacity:0.7;}.cls-11,.cls-13,.cls-15,.cls-3,.cls-4,.cls-6,.cls-8{isolation:isolate;}.cls-3{fill:url(#Degradado_sin_nombre_2);}.cls-13,.cls-4{opacity:0.83;}.cls-4{fill:url(#Degradado_sin_nombre_3);}.cls-5{fill:url(#Degradado_sin_nombre_4);}.cls-6{fill:url(#Degradado_sin_nombre_5);}.cls-7{fill:url(#Degradado_sin_nombre_6);}.cls-8{fill:url(#Degradado_sin_nombre_7);}.cls-9{fill:url(#Degradado_sin_nombre_8);}.cls-10{fill:url(#Degradado_sin_nombre_9);}.cls-11{fill:url(#Degradado_sin_nombre_10);}.cls-12{fill:url(#Degradado_sin_nombre_11);}.cls-13{fill:url(#Degradado_sin_nombre_12);}.cls-14{fill:url(#Degradado_sin_nombre_13);}.cls-15{fill:url(#Degradado_sin_nombre_14);}</style><linearGradient id="Degradado_sin_nombre" x1="198.87" y1="70.21" x2="310.15" y2="70.21" gradientTransform="matrix(1, 0, 0, -1, 0, 183.99)" gradientUnits="userSpaceOnUse"><stop offset="0" stop-color="#00bef5"/><stop offset="1" stop-color="#007dc6"/></linearGradient><linearGradient id="Degradado_sin_nombre_2" x1="198.87" y1="65.86" x2="310.15" y2="65.86" gradientTransform="matrix(1, 0, 0, -1, 0, 183.99)" gradientUnits="userSpaceOnUse"><stop offset="0" stop-color="#fff"/><stop offset="1" stop-color="#fff" stop-opacity="0"/></linearGradient><linearGradient id="Degradado_sin_nombre_3" x1="258.31" y1="91.69" x2="255.13" y2="69.15" gradientTransform="matrix(1, 0, 0, -1, 0, 184)" gradientUnits="userSpaceOnUse"><stop offset="0" stop-color="#13355c"/><stop offset="1" stop-color="#fff" stop-opacity="0"/></linearGradient><linearGradient id="Degradado_sin_nombre_4" x1="254.89" y1="130.33" x2="253.51" y2="85.08" gradientTransform="matrix(1, 0, 0, -1, 0, 184)" xlink:href="#Degradado_sin_nombre"/><linearGradient id="Degradado_sin_nombre_5" x1="244.69" y1="166.38" x2="254.89" y2="107.24" gradientTransform="matrix(1, 0, 0, -1, 0, 184)" xlink:href="#Degradado_sin_nombre_2"/><linearGradient id="Degradado_sin_nombre_6" x1="577.82" y1="70.21" x2="689.1" y2="70.21" gradientTransform="translate(689.1 183.99) rotate(180)" gradientUnits="userSpaceOnUse"><stop offset="0" stop-color="#e4e61d"/><stop offset="0.99" stop-color="#5fbd3f"/></linearGradient><linearGradient id="Degradado_sin_nombre_7" x1="577.82" y1="65.86" x2="689.1" y2="65.86" gradientTransform="translate(689.1 183.99) rotate(180)" xlink:href="#Degradado_sin_nombre_2"/><linearGradient id="Degradado_sin_nombre_8" x1="637.28" y1="91.72" x2="634.11" y2="69.22" gradientTransform="translate(689.1 184) rotate(180)" gradientUnits="userSpaceOnUse"><stop offset="0" stop-color="#085c2d"/><stop offset="1" stop-color="#fff" stop-opacity="0"/></linearGradient><linearGradient id="Degradado_sin_nombre_9" x1="633.84" y1="130.33" x2="632.46" y2="85.08" gradientTransform="translate(689.1 184) rotate(180)" xlink:href="#Degradado_sin_nombre_6"/><linearGradient id="Degradado_sin_nombre_10" x1="623.64" y1="166.38" x2="633.84" y2="107.24" gradientTransform="translate(689.1 184) rotate(180)" xlink:href="#Degradado_sin_nombre_2"/><linearGradient id="Degradado_sin_nombre_11" x1="181.86" y1="188.21" x2="134.49" y2="19.52" gradientTransform="matrix(1, 0, 0, -1, 0, 184)" gradientUnits="userSpaceOnUse"><stop offset="0" stop-color="#ffdc00"/><stop offset="1" stop-color="#007dc6"/></linearGradient><linearGradient id="Degradado_sin_nombre_12" x1="150.36" y1="94.05" x2="162.91" y2="90.69" xlink:href="#Degradado_sin_nombre_3"/><linearGradient id="Degradado_sin_nombre_13" x1="174.11" y1="187.64" x2="127.37" y2="21.21" xlink:href="#Degradado_sin_nombre_11"/><linearGradient id="Degradado_sin_nombre_14" x1="181.86" y1="188.21" x2="134.49" y2="19.52" gradientTransform="matrix(1, 0, 0, -1, 0, 184)" xlink:href="#Degradado_sin_nombre_2"/></defs><g id="BACKGROUND"><path class="cls-1" d="M380.73,121.19V36.11h21.48v85.08Zm14.52,0V102.71h20.4A27,27,0,0,0,428.19,100a19,19,0,0,0,8.22-8.22,28.12,28.12,0,0,0,2.88-13.26,26.44,26.44,0,0,0-2.94-13,19.57,19.57,0,0,0-8.22-8.1,26.59,26.59,0,0,0-12.48-2.76H394.29V36.11h21.48a51.89,51.89,0,0,1,18.12,3.06,43,43,0,0,1,14.4,8.7,39.78,39.78,0,0,1,9.54,13.44,42.58,42.58,0,0,1,3.42,17.28A43.15,43.15,0,0,1,457.83,96a39.78,39.78,0,0,1-9.54,13.44,43.09,43.09,0,0,1-14.34,8.7A51,51,0,0,1,416,121.19Z"/><path class="cls-1" d="M500.25,122.51a37.42,37.42,0,0,1-17.4-3.9,30.74,30.74,0,0,1-12-42.6,30.38,30.38,0,0,1,11.46-10.92,33.24,33.24,0,0,1,16.38-4,31.87,31.87,0,0,1,15.78,3.78,27.67,27.67,0,0,1,10.8,10.44,29.48,29.48,0,0,1,3.9,15.18q0,1.8-.18,3.66a29.58,29.58,0,0,1-.78,4.26l-51.72.24V85.19l43.44-.36-9.36,5.88a22.77,22.77,0,0,0-1.44-8.1,10.47,10.47,0,0,0-3.84-4.86,11.23,11.23,0,0,0-6.36-1.68A12.23,12.23,0,0,0,492.09,78a12.4,12.4,0,0,0-4.44,5.4,20.45,20.45,0,0,0-1.56,8.4,20.14,20.14,0,0,0,1.68,8.58,11.81,11.81,0,0,0,4.8,5.34,15.15,15.15,0,0,0,7.68,1.8,18.9,18.9,0,0,0,7.62-1.44,16.91,16.91,0,0,0,5.94-4.44l10.92,10.92a27.67,27.67,0,0,1-10.5,7.44,36.75,36.75,0,0,1-14,2.52Z"/><path class="cls-1" d="M553.77,121.19,529.89,62.51h22.32L567.45,112h-8.52l15.12-49.44h22.08l-23.88,58.68Z"/><path class="cls-1" d="M598.89,49.79V37.19h68.52v12.6Zm27.36,71.4V39.59h13.8v81.6Z"/><path class="cls-1" d="M665.37,121.19V63.59h13.2v57.6Zm13.2-32L674,86.87q0-10.92,4.86-17.7t14.7-6.78A17.59,17.59,0,0,1,707.85,69l-8.64,8.88a9.1,9.1,0,0,0-3.48-2.4,13.8,13.8,0,0,0-13.56,2.76Q678.57,81.71,678.57,89.15Z"/><path class="cls-1" d="M739.29,122.39a31,31,0,0,1-15.54-3.9,29,29,0,0,1-10.92-10.74,31.45,31.45,0,0,1-.06-30.66,29.46,29.46,0,0,1,25.8-14.7,26.34,26.34,0,0,1,23.94,13.92,30.28,30.28,0,0,1,3.54,14.76,24.67,24.67,0,0,1-.18,2.94q-.18,1.5-.54,3.3H718.05V86.51h40.44l-4.92,4.32a22,22,0,0,0-2-8.88,12.87,12.87,0,0,0-5.1-5.52,15.87,15.87,0,0,0-8.1-1.92,17.14,17.14,0,0,0-8.76,2.16,14.77,14.77,0,0,0-5.76,6.06,19.82,19.82,0,0,0-2,9.3,20,20,0,0,0,2.16,9.48,15.23,15.23,0,0,0,6.12,6.3,18.33,18.33,0,0,0,9.12,2.22,21.34,21.34,0,0,0,8.22-1.56,17.13,17.13,0,0,0,6.42-4.56l8.4,8.52a26.94,26.94,0,0,1-10.2,7.44,32.51,32.51,0,0,1-12.72,2.52Z"/><path class="cls-1" d="M803.37,122.39a31,31,0,0,1-15.54-3.9,29,29,0,0,1-10.92-10.74,31.45,31.45,0,0,1-.06-30.66,29.46,29.46,0,0,1,25.8-14.7,26.34,26.34,0,0,1,23.94,13.92,30.28,30.28,0,0,1,3.54,14.76A24.67,24.67,0,0,1,830,94q-.18,1.5-.54,3.3H782.13V86.51h40.44l-4.92,4.32a22,22,0,0,0-2-8.88,12.87,12.87,0,0,0-5.1-5.52,15.87,15.87,0,0,0-8.1-1.92,17.14,17.14,0,0,0-8.76,2.16,14.77,14.77,0,0,0-5.76,6.06,19.82,19.82,0,0,0-2,9.3,20,20,0,0,0,2.16,9.48,15.23,15.23,0,0,0,6.12,6.3,18.33,18.33,0,0,0,9.12,2.22,21.34,21.34,0,0,0,8.22-1.56,17.13,17.13,0,0,0,6.42-4.56l8.4,8.52a26.94,26.94,0,0,1-10.2,7.44,32.51,32.51,0,0,1-12.72,2.52Z"/></g><g id="OBJECTS"><path class="cls-2" d="M198.87,117.35v23.9a8.29,8.29,0,0,0,11.43,7.67L302.84,111a11.78,11.78,0,0,0,7.31-10.9V86.55a8.53,8.53,0,0,0-11.46-8L201.2,114a3.54,3.54,0,0,0-2.33,3.33Z"/><path class="cls-3" d="M198.87,127.23v14a8.29,8.29,0,0,0,11.43,7.67L302.84,111a11.78,11.78,0,0,0,7.31-10.9V86.72Z"/><path class="cls-4" d="M203.67,114.84V138a8.06,8.06,0,0,0,11.12,7.46L301.41,110a11.78,11.78,0,0,0,7.31-10.9V85.65a6.34,6.34,0,0,0-8.52-6l-96.54,35.14Z"/><path class="cls-5" d="M310.15,91.2V84.91a15.73,15.73,0,0,0-9.77-14.56L210.3,33.46a8.29,8.29,0,0,0-11.43,7.67V65a3.54,3.54,0,0,0,2.33,3.33l93.14,33.91A11.78,11.78,0,0,0,310.15,91.2Z"/><path class="cls-6" d="M310.15,84.91h0a15.73,15.73,0,0,0-9.77-14.56L210.3,33.46a8.29,8.29,0,0,0-11.43,7.67V65.22a3.53,3.53,0,0,0,2.1,3.23h0v-16a8.29,8.29,0,0,1,11.43-7.67Z"/><path class="cls-7" d="M11.46,78.53A8.54,8.54,0,0,0,0,86.55v13.57A11.78,11.78,0,0,0,7.31,111l92.54,37.9a8.29,8.29,0,0,0,11.43-7.67v-23.9A3.54,3.54,0,0,0,109,114Z"/><path class="cls-8" d="M0,86.72v13.4A11.78,11.78,0,0,0,7.31,111l92.54,37.9a8.29,8.29,0,0,0,11.43-7.67v-14Z"/><path class="cls-9" d="M9.94,79.7a6.35,6.35,0,0,0-8.52,6V99.07A11.78,11.78,0,0,0,8.73,110L95,145.31a8.29,8.29,0,0,0,11.44-7.68V114.84Z"/><path class="cls-10" d="M15.81,102.27,109,68.36A3.54,3.54,0,0,0,111.28,65V41.13a8.29,8.29,0,0,0-11.43-7.67L9.77,70.36A15.73,15.73,0,0,0,0,84.92v6.29a11.78,11.78,0,0,0,15.81,11.07Z"/><path class="cls-11" d="M0,84.91H0A15.73,15.73,0,0,1,9.77,70.35L99.85,33.46a8.29,8.29,0,0,1,11.43,7.67V65.22a3.53,3.53,0,0,1-2.1,3.23h0v-16a8.29,8.29,0,0,0-11.43-7.67Z"/><path class="cls-12" d="M198.92,6.09l-55,162.53a20.33,20.33,0,0,1-19.25,13.81h-9a4.61,4.61,0,0,1-4.37-6.08l55-162.53A20.32,20.32,0,0,1,185.44,0h9.11A4.62,4.62,0,0,1,198.92,6.09Z"/><path class="cls-13" d="M198.92,6.09l-55,162.53a20.33,20.33,0,0,1-19.25,13.81h-9a4.61,4.61,0,0,1-4.37-6.08l55-162.53A20.32,20.32,0,0,1,185.44,0h9.11A4.62,4.62,0,0,1,198.92,6.09Z"/><path class="cls-14" d="M166.19,13.82l-55,162.53a4.6,4.6,0,0,0,4.37,6.08h8.16L185.44,0h0a20.32,20.32,0,0,0-19.25,13.81Z"/><path class="cls-15" d="M190.22,6.09h8.7A4.61,4.61,0,0,0,194.55,0h-9.12a20.34,20.34,0,0,0-19.26,13.82l-55,162.53a4.6,4.6,0,0,0,4.37,6.08H116L171,19.9A20.33,20.33,0,0,1,190.23,6.08Z"/></g></svg>