<?xml version="1.0" encoding="utf-8"?>
<!-- Generator: Adobe Illustrator 25.2.3, SVG Export Plug-In . SVG Version: 6.00 Build 0)  -->
<svg version="1.1" id="Capa_1" xmlns="http://www.w3.org/2000/svg" xmlns:xlink="http://www.w3.org/1999/xlink" x="0px" y="0px"
	 viewBox="0 0 310.1 182.4" style="enable-background:new 0 0 310.1 182.4;" xml:space="preserve">
<style type="text/css">
	.st0{fill:url(#SVGID_1_);}
	.st1{opacity:0.7;fill:url(#SVGID_2_);enable-background:new    ;}
	.st2{opacity:0.83;fill:url(#SVGID_3_);enable-background:new    ;}
	.st3{fill:url(#SVGID_4_);}
	.st4{opacity:0.7;fill:url(#SVGID_5_);enable-background:new    ;}
	.st5{fill:url(#SVGID_6_);}
	.st6{opacity:0.7;fill:url(#SVGID_7_);enable-background:new    ;}
	.st7{fill:url(#SVGID_8_);}
	.st8{fill:url(#SVGID_9_);}
	.st9{opacity:0.7;fill:url(#SVGID_10_);enable-background:new    ;}
	.st10{fill:url(#SVGID_11_);}
	.st11{opacity:0.83;fill:url(#SVGID_12_);enable-background:new    ;}
	.st12{fill:url(#SVGID_13_);}
	.st13{opacity:0.7;fill:url(#SVGID_14_);enable-background:new    ;}
</style>
<g id="OBJECTS">
	<g>
		<g>
			<g>
				
					<linearGradient id="SVGID_1_" gradientUnits="userSpaceOnUse" x1="198.87" y1="70.2144" x2="310.15" y2="70.2144" gradientTransform="matrix(1 0 0 -1 0 183.99)">
					<stop  offset="0" style="stop-color:#00BEF5"/>
					<stop  offset="1" style="stop-color:#007DC6"/>
				</linearGradient>
				<path class="st0" d="M198.9,117.3v23.9c0,5.9,6,9.9,11.4,7.7l92.5-37.9c4.4-1.8,7.3-6.1,7.3-10.9V86.5c0-5.9-5.9-10.1-11.5-8
					L201.2,114C199.8,114.5,198.9,115.9,198.9,117.3L198.9,117.3z"/>
				
					<linearGradient id="SVGID_2_" gradientUnits="userSpaceOnUse" x1="198.87" y1="65.8574" x2="310.15" y2="65.8574" gradientTransform="matrix(1 0 0 -1 0 183.99)">
					<stop  offset="0" style="stop-color:#FFFFFF"/>
					<stop  offset="1" style="stop-color:#FFFFFF;stop-opacity:0"/>
				</linearGradient>
				<path class="st1" d="M198.9,127.2v14c0,5.9,6,9.9,11.4,7.7l92.5-37.9c4.4-1.8,7.3-6.1,7.3-10.9V86.7
					C310.1,86.7,198.9,127.2,198.9,127.2z"/>
				
					<linearGradient id="SVGID_3_" gradientUnits="userSpaceOnUse" x1="258.3134" y1="91.6909" x2="255.1334" y2="69.1509" gradientTransform="matrix(1 0 0 -1 0 184)">
					<stop  offset="0" style="stop-color:#13355C"/>
					<stop  offset="1" style="stop-color:#FFFFFF;stop-opacity:0"/>
				</linearGradient>
				<path class="st2" d="M203.7,114.8V138c0,5.7,5.8,9.6,11.1,7.5l86.6-35.5c4.4-1.8,7.3-6.1,7.3-10.9V85.7c0-4.4-4.4-7.5-8.5-6
					L203.7,114.8L203.7,114.8z"/>
				
					<linearGradient id="SVGID_4_" gradientUnits="userSpaceOnUse" x1="254.8919" y1="130.3299" x2="253.5119" y2="85.0799" gradientTransform="matrix(1 0 0 -1 0 184)">
					<stop  offset="0" style="stop-color:#00BEF5"/>
					<stop  offset="1" style="stop-color:#007DC6"/>
				</linearGradient>
				<path class="st3" d="M310.1,91.2v-6.3c0-6.4-3.9-12.1-9.8-14.6l-90.1-36.9c-5.4-2.2-11.4,1.8-11.4,7.7V65c0,1.5,0.9,2.8,2.3,3.3
					l93.1,33.9C302,105.1,310.1,99.4,310.1,91.2z"/>
				
					<linearGradient id="SVGID_5_" gradientUnits="userSpaceOnUse" x1="244.6925" y1="166.3804" x2="254.8925" y2="107.2404" gradientTransform="matrix(1 0 0 -1 0 184)">
					<stop  offset="0" style="stop-color:#FFFFFF"/>
					<stop  offset="1" style="stop-color:#FFFFFF;stop-opacity:0"/>
				</linearGradient>
				<path class="st4" d="M310.1,84.9L310.1,84.9c0-6.4-3.9-12.1-9.8-14.6l-90.1-36.9c-5.4-2.2-11.4,1.8-11.4,7.7v24.1
					c0,1.4,0.8,2.7,2.1,3.2l0,0v-16c0-5.9,6-9.9,11.4-7.7L310.1,84.9z"/>
			</g>
			<g>
				
					<linearGradient id="SVGID_6_" gradientUnits="userSpaceOnUse" x1="577.82" y1="70.214" x2="689.1" y2="70.214" gradientTransform="matrix(-1 0 0 -1 689.1 183.99)">
					<stop  offset="0" style="stop-color:#E4E61D"/>
					<stop  offset="0.99" style="stop-color:#5FBD3F"/>
				</linearGradient>
				<path class="st5" d="M11.5,78.5c-5.6-2-11.5,2.1-11.5,8v13.6c0,4.8,2.9,9.1,7.3,10.9l92.5,37.9c5.4,2.2,11.4-1.8,11.4-7.7v-23.9
					c0-1.5-0.9-2.8-2.3-3.3L11.5,78.5z"/>
				
					<linearGradient id="SVGID_7_" gradientUnits="userSpaceOnUse" x1="577.82" y1="65.8574" x2="689.1" y2="65.8574" gradientTransform="matrix(-1 0 0 -1 689.1 183.99)">
					<stop  offset="0" style="stop-color:#FFFFFF"/>
					<stop  offset="1" style="stop-color:#FFFFFF;stop-opacity:0"/>
				</linearGradient>
				<path class="st6" d="M0,86.7v13.4c0,4.8,2.9,9.1,7.3,10.9l92.5,37.9c5.4,2.2,11.4-1.8,11.4-7.7v-14L0,86.7z"/>
				
					<linearGradient id="SVGID_8_" gradientUnits="userSpaceOnUse" x1="637.2807" y1="91.7185" x2="634.1107" y2="69.2185" gradientTransform="matrix(-1 0 0 -1 689.1 184)">
					<stop  offset="0" style="stop-color:#085C2D"/>
					<stop  offset="1" style="stop-color:#FFFFFF;stop-opacity:0"/>
				</linearGradient>
				<path class="st7" d="M9.9,79.7c-4.1-1.5-8.5,1.6-8.5,6v13.4c0,4.8,2.9,9.1,7.3,10.9L95,145.3c5.5,2.2,11.4-1.8,11.4-7.7v-22.8
					L9.9,79.7z"/>
				
					<linearGradient id="SVGID_9_" gradientUnits="userSpaceOnUse" x1="633.842" y1="130.3299" x2="632.462" y2="85.0799" gradientTransform="matrix(-1 0 0 -1 689.1 184)">
					<stop  offset="0" style="stop-color:#E4E61D"/>
					<stop  offset="0.99" style="stop-color:#5FBD3F"/>
				</linearGradient>
				<path class="st8" d="M15.8,102.3l93.1-33.9c1.4-0.5,2.3-1.8,2.3-3.3V41.1c0-5.9-6-9.9-11.4-7.7L9.8,70.4C3.9,72.8,0,78.5,0,84.9
					v6.3C0,99.4,8.1,105.1,15.8,102.3L15.8,102.3z"/>
				
					<linearGradient id="SVGID_10_" gradientUnits="userSpaceOnUse" x1="623.6426" y1="166.3804" x2="633.8425" y2="107.2404" gradientTransform="matrix(-1 0 0 -1 689.1 184)">
					<stop  offset="0" style="stop-color:#FFFFFF"/>
					<stop  offset="1" style="stop-color:#FFFFFF;stop-opacity:0"/>
				</linearGradient>
				<path class="st9" d="M0,84.9L0,84.9c0-6.4,3.9-12.1,9.8-14.6l90.1-36.9c5.4-2.2,11.4,1.8,11.4,7.7v24.1c0,1.4-0.8,2.7-2.1,3.2
					l0,0v-16c0-5.9-6-9.9-11.4-7.7L0,84.9z"/>
			</g>
		</g>
		<g>
			
				<linearGradient id="SVGID_11_" gradientUnits="userSpaceOnUse" x1="181.8632" y1="188.2119" x2="134.4932" y2="19.5219" gradientTransform="matrix(1 0 0 -1 0 184)">
				<stop  offset="0" style="stop-color:#FFDC00"/>
				<stop  offset="1" style="stop-color:#007DC6"/>
			</linearGradient>
			<path class="st10" d="M198.9,6.1l-55,162.5c-2.8,8.2-10.5,13.8-19.2,13.8h-9.1c-3.2,0-5.4-3.1-4.4-6.1l55-162.5
				C169,5.6,176.7,0,185.4,0h9.1C197.7,0,199.9,3.1,198.9,6.1z"/>
			
				<linearGradient id="SVGID_12_" gradientUnits="userSpaceOnUse" x1="150.3587" y1="94.045" x2="162.9087" y2="90.685" gradientTransform="matrix(1 0 0 -1 0 184)">
				<stop  offset="0" style="stop-color:#13355C"/>
				<stop  offset="1" style="stop-color:#FFFFFF;stop-opacity:0"/>
			</linearGradient>
			<path class="st11" d="M198.9,6.1l-55,162.5c-2.8,8.2-10.5,13.8-19.2,13.8h-9.1c-3.2,0-5.4-3.1-4.4-6.1l55-162.5
				C169,5.6,176.7,0,185.4,0h9.1C197.7,0,199.9,3.1,198.9,6.1z"/>
			
				<linearGradient id="SVGID_13_" gradientUnits="userSpaceOnUse" x1="174.1117" y1="187.6395" x2="127.3717" y2="21.2095" gradientTransform="matrix(1 0 0 -1 0 184)">
				<stop  offset="0" style="stop-color:#FFDC00"/>
				<stop  offset="1" style="stop-color:#007DC6"/>
			</linearGradient>
			<path class="st12" d="M166.2,13.8l-55,162.5c-1,3,1.2,6.1,4.4,6.1h8.2L185.4,0l0,0C176.7,0,169,5.6,166.2,13.8L166.2,13.8z"/>
			
				<linearGradient id="SVGID_14_" gradientUnits="userSpaceOnUse" x1="181.8633" y1="188.2119" x2="134.4933" y2="19.5219" gradientTransform="matrix(1 0 0 -1 0 184)">
				<stop  offset="0" style="stop-color:#FFFFFF"/>
				<stop  offset="1" style="stop-color:#FFFFFF;stop-opacity:0"/>
			</linearGradient>
			<path class="st13" d="M190.2,6.1h8.7c1-3-1.2-6.1-4.4-6.1h-9.1c-8.7,0-16.5,5.6-19.3,13.8l-55,162.5c-1,3,1.2,6.1,4.4,6.1h0.4
				l55-162.5C173.8,11.6,181.5,6.1,190.2,6.1L190.2,6.1z"/>
		</g>
	</g>
</g>
</svg>
